<?xml version="1.0" standalone="no"?>
<!DOCTYPE svg PUBLIC "-//W3C//DTD SVG 20010904//EN"
 "http://www.w3.org/TR/2001/REC-SVG-20010904/DTD/svg10.dtd">
<svg version="1.0" xmlns="http://www.w3.org/2000/svg"
 width="470.000000pt" height="300.000000pt" viewBox="0 0 470.000000 300.000000"
 preserveAspectRatio="xMidYMid meet">

<g transform="translate(0.000000,300.000000) scale(0.100000,-0.100000)"
fill="#000000" stroke="none">
<path d="M2482 1718 c-7 -7 -12 -24 -12 -38 0 -14 5 -31 12 -38 7 -7 24 -12
38 -12 14 0 31 5 38 12 7 7 12 24 12 38 0 14 -5 31 -12 38 -7 7 -24 12 -38 12
-14 0 -31 -5 -38 -12z"/>
<path d="M3272 1718 c-7 -7 -12 -24 -12 -38 0 -33 17 -50 50 -50 32 0 50 17
50 46 0 44 -58 72 -88 42z"/>
<path d="M1500 1500 l0 -220 40 0 40 0 0 90 0 90 85 0 85 0 0 -90 0 -90 45 0
45 0 0 220 0 220 -45 0 -45 0 0 -90 0 -90 -85 0 -85 0 0 90 0 90 -40 0 -40 0
0 -220z"/>
<path d="M2310 1500 l0 -220 40 0 40 0 0 220 0 220 -40 0 -40 0 0 -220z"/>
<path d="M4045 1708 c-2 -7 -27 -101 -55 -208 -28 -107 -53 -201 -55 -207 -3
-9 9 -13 40 -13 44 0 44 0 57 48 l14 47 76 3 77 3 10 -38 c6 -21 11 -44 11
-50 0 -9 16 -13 46 -13 39 0 46 3 42 18 -3 9 -29 108 -58 220 l-53 202 -74 0
c-50 0 -75 -4 -78 -12z m109 -145 c14 -56 26 -104 26 -107 0 -3 -25 -6 -55 -6
-65 0 -64 -3 -35 113 24 97 29 111 34 106 3 -2 16 -50 30 -106z"/>
<path d="M4370 1500 l0 -220 40 0 40 0 0 220 0 220 -40 0 -40 0 0 -220z"/>
<path d="M3030 1640 l0 -50 -40 0 c-38 0 -40 -2 -40 -29 0 -27 3 -30 38 -33
l37 -3 3 -105 c3 -131 10 -140 99 -140 l63 0 0 29 c0 27 -3 30 -37 33 l-38 3
-3 93 -3 92 46 0 c43 0 45 1 45 30 0 29 -2 30 -45 30 l-45 0 0 50 0 50 -40 0
-40 0 0 -50z"/>
<path d="M1990 1582 c-55 -27 -80 -74 -80 -147 0 -48 5 -70 23 -96 62 -93 226
-92 282 3 27 45 27 141 0 186 -39 64 -151 92 -225 54z m137 -76 c23 -20 28
-32 28 -71 0 -39 -5 -51 -28 -71 -62 -53 -137 -14 -137 71 0 85 75 124 137 71z"/>
<path d="M2693 1584 c-36 -18 -58 -62 -49 -99 9 -37 42 -62 100 -75 28 -7 62
-19 75 -27 l23 -15 -20 -20 c-28 -28 -88 -18 -104 18 -10 21 -16 24 -42 18
-17 -3 -35 -10 -40 -14 -14 -13 25 -67 61 -84 67 -32 177 -14 203 33 17 32 12
89 -9 110 -18 18 -79 41 -108 41 -23 0 -63 23 -63 36 0 37 81 39 100 3 9 -15
15 -16 43 -7 42 14 40 13 27 38 -29 55 -129 77 -197 44z"/>
<path d="M3497 1579 c-70 -37 -96 -140 -58 -226 49 -107 230 -113 286 -9 17
32 18 38 5 46 -20 13 -70 13 -70 0 0 -20 -41 -50 -69 -50 -17 0 -42 10 -58 24
-23 20 -28 32 -28 71 0 39 5 51 28 71 47 40 94 30 132 -28 8 -12 17 -14 43 -6
37 10 39 19 12 63 -40 64 -146 85 -223 44z"/>
<path d="M2480 1435 l0 -155 40 0 40 0 0 155 0 155 -40 0 -40 0 0 -155z"/>
<path d="M3270 1435 l0 -155 40 0 40 0 0 155 0 155 -40 0 -40 0 0 -155z"/>
<path d="M260 1385 c0 -3 12 -27 28 -55 l27 -49 60 -3 60 -3 83 -152 84 -153
63 0 64 0 31 55 31 55 173 0 172 0 29 55 30 55 -28 54 -29 55 27 45 c21 35 23
46 12 46 -8 0 -20 -13 -27 -30 -7 -16 -16 -30 -21 -30 -4 0 -16 14 -26 30 -9
17 -23 30 -31 30 -9 0 -5 -15 14 -48 l27 -48 -27 -47 c-27 -45 -30 -47 -74
-47 -46 0 -48 1 -74 48 l-26 47 24 48 c18 35 21 47 10 47 -7 0 -19 -13 -26
-30 -7 -16 -16 -30 -21 -30 -5 0 -15 14 -24 30 l-16 30 -132 0 -133 0 -23 -40
c-22 -39 -24 -40 -76 -40 -53 0 -55 1 -77 40 -13 22 -29 40 -36 40 -10 0 -8
-9 7 -36 12 -19 21 -37 21 -40 0 -2 -20 -4 -43 -4 -42 0 -45 2 -62 40 -10 22
-24 40 -32 40 -7 0 -13 -2 -13 -5z m423 -40 c-15 -32 -20 -35 -60 -35 -24 0
-43 3 -43 6 0 3 8 19 17 35 15 25 23 29 60 29 l43 0 -17 -35z m120 4 c-22 -37
-30 -41 -77 -37 l-36 3 20 33 c18 29 25 32 65 32 l46 0 -18 -31z m63 -20 c15
-29 15 -34 -2 -70 -9 -22 -20 -39 -24 -39 -3 0 -14 17 -24 37 -17 35 -17 38 1
70 9 18 21 33 25 33 4 0 15 -14 24 -31z m-351 -79 c-9 -16 -18 -30 -20 -30 -2
0 -11 14 -20 30 l-16 30 36 0 36 0 -16 -30z m125 23 c-1 -5 -7 -19 -14 -31
l-13 -24 -16 26 c-23 34 -22 36 13 36 17 0 30 -3 30 -7z m162 -37 l21 -45 -24
-45 c-24 -46 -25 -46 -76 -46 -50 0 -52 1 -76 44 l-24 44 25 46 c25 46 26 46
79 46 53 0 53 0 75 -44z m-212 -31 c0 -3 -16 -5 -35 -5 -40 0 -40 1 -19 42
l16 30 19 -31 c10 -17 19 -34 19 -36z m340 8 c0 -8 -14 -13 -35 -13 l-35 0 17
35 17 36 18 -23 c10 -13 18 -29 18 -35z m223 12 c16 -33 16 -36 -4 -70 -12
-19 -22 -35 -24 -35 -2 0 -12 16 -24 36 -21 36 -19 53 12 92 15 19 22 15 40
-23z m-548 -58 c1 -1 11 -18 24 -39 21 -35 21 -37 4 -72 -9 -20 -20 -36 -24
-36 -7 0 -89 143 -89 156 0 5 82 -3 85 -9z m325 8 c0 -11 -24 -55 -30 -55 -6
0 -30 44 -30 55 0 3 14 5 30 5 17 0 30 -2 30 -5z m149 -31 c12 -19 21 -37 21
-40 0 -2 -38 -4 -85 -4 -47 0 -85 4 -85 9 0 5 8 23 18 40 15 28 22 31 64 31
42 0 48 -3 67 -36z m-221 -9 c16 -35 16 -35 -18 -35 -16 0 -30 2 -30 5 0 11
24 55 30 55 4 0 12 -11 18 -25z m-98 -59 c0 -3 -9 -21 -21 -40 -19 -33 -25
-36 -65 -36 l-45 0 23 40 c21 37 26 40 66 40 23 0 42 -2 42 -4z"/>
</g>
</svg>
